<svg version="1.1"
    xmlns="http://www.w3.org/2000/svg"
    xmlns:xlink="http://www.w3.org/1999/xlink" width="512" height="512" viewBox="0 0 512 512">
    <title>chart dot icon</title>
    <desc>chart dot icon from the IconExperience.com G-Collection. Copyright by INCORS GmbH (www.incors.com).</desc>
    <defs>
        <linearGradient x1="32" y1="32" x2="431.5678" y2="480.00035" gradientUnits="userSpaceOnUse" id="color-1">
            <stop offset="0" stop-color="#6d7b8b"/>
            <stop offset="1" stop-color="#556473"/>
        </linearGradient>
        <linearGradient x1="32" y1="32" x2="464.0002" y2="480" gradientUnits="userSpaceOnUse" id="color-2">
            <stop offset="0" stop-color="#51616f"/>
            <stop offset="1" stop-color="#36414a"/>
        </linearGradient>
        <linearGradient x1="208" y1="368" x2="269.0225" y2="407.2295" gradientUnits="userSpaceOnUse" id="color-3">
            <stop offset="0" stop-color="#ffd041"/>
            <stop offset="1" stop-color="#ffc105"/>
        </linearGradient>
        <linearGradient x1="240" y1="240" x2="301.023" y2="279.229" gradientUnits="userSpaceOnUse" id="color-4">
            <stop offset="0" stop-color="#ffd041"/>
            <stop offset="1" stop-color="#ffc105"/>
        </linearGradient>
        <linearGradient x1="288" y1="64" x2="351.98" y2="105.1295" gradientUnits="userSpaceOnUse" id="color-5">
            <stop offset="0" stop-color="#ffd041"/>
            <stop offset="1" stop-color="#ffc001"/>
        </linearGradient>
        <linearGradient x1="64" y1="96" x2="122.029" y2="133.304" gradientUnits="userSpaceOnUse" id="color-6">
            <stop offset="0" stop-color="#ffd041"/>
            <stop offset="1" stop-color="#ffc001"/>
        </linearGradient>
        <linearGradient x1="368" y1="128" x2="426.029" y2="165.304" gradientUnits="userSpaceOnUse" id="color-7">
            <stop offset="0" stop-color="#ffd041"/>
            <stop offset="1" stop-color="#ffc001"/>
        </linearGradient>
        <linearGradient x1="192" y1="160" x2="242.0005" y2="211.25" gradientUnits="userSpaceOnUse" id="color-8">
            <stop offset="0" stop-color="#4eb6f2"/>
            <stop offset="1" stop-color="#129eee"/>
        </linearGradient>
        <linearGradient x1="336" y1="288" x2="386.0005" y2="339.2505" gradientUnits="userSpaceOnUse" id="color-9">
            <stop offset="0" stop-color="#4eb6f2"/>
            <stop offset="1" stop-color="#129eee"/>
        </linearGradient>
        <linearGradient x1="384" y1="384" x2="434.0005" y2="435.2505" gradientUnits="userSpaceOnUse" id="color-10">
            <stop offset="0" stop-color="#4eb6f2"/>
            <stop offset="1" stop-color="#129eee"/>
        </linearGradient>
        <linearGradient x1="96" y1="304" x2="146" y2="355.25" gradientUnits="userSpaceOnUse" id="color-11">
            <stop offset="0" stop-color="#4eb6f2"/>
            <stop offset="1" stop-color="#129eee"/>
        </linearGradient>
    </defs>
    <g fill="none" fill-rule="none" stroke="none" stroke-width="1" stroke-linecap="butt" stroke-linejoin="miter" stroke-miterlimit="10" stroke-dasharray="" stroke-dashoffset="0" font-family="none" font-weight="none" text-anchor="none" style="mix-blend-mode: normal">
        <path d="M64,32l384,0c17.5,0 32,14.5 32,32l0,384c0,17.5 -14.5,32 -32,32l-384,0c-17.5,0 -32,-14.5 -32,-32l0,-384c0,-17.5 14.5,-32 32,-32z" id="curve10" fill="url(#color-1)" fill-rule="evenodd"/>
        <path d="M112,480l0,-80l-80,0l0,-16l80,0l0,-80l-80,0l0,-16l80,0l0,-80l-80,0l0,-16l80,0l0,-80l-80,0l0,-16l80,0l0,-64l16,0l0,64l80,0l0,-64l16,0l0,64l80,0l0,-64l16,0l0,64l80,0l0,-64l16,0l0,64l64,0l0,16l-64,0l0,80l64,0l0,16l-64,0l0,80l64,0l0,16l-64,0l0,80l64,0l0,16l-64,0l0,80l-16,0l0,-80l-80,0l0,80l-16,0l0,-80l-80,0l0,80l-16,0l0,-80l-80,0l0,80z M128,112l0,80l80,0l0,-80z M128,208l0,80l80,0l0,-80z M128,304l0,80l80,0l0,-80z M400,112l-80,0l0,80l80,0z M304,112l-80,0l0,80l80,0z M224,384l80,0l0,-80l-80,0z M320,384l80,0l0,-80l-80,0z M224,288l80,0l0,-80l-80,0z M320,288l80,0l0,-80l-80,0z" id="curve9" fill="url(#color-2)" fill-rule="evenodd"/>
        <path d="M240,368c17.5,0 32,14.5 32,32c0,17.5 -14.5,32 -32,32c-17.5,0 -32,-14.5 -32,-32c0,-17.5 14.5,-32 32,-32z" id="curve8" fill="url(#color-3)" fill-rule="evenodd"/>
        <path d="M272,240c17.5,0 32,14.5 32,32c0,17.5 -14.5,32 -32,32c-17.5,0 -32,-14.5 -32,-32c0,-17.5 14.5,-32 32,-32z" id="curve7" fill="url(#color-4)" fill-rule="evenodd"/>
        <path d="M320,64c17.5,0 32,14.5 32,32c0,17.5 -14.5,32 -32,32c-17.5,0 -32,-14.5 -32,-32c0,-17.5 14.5,-32 32,-32z" id="curve6" fill="url(#color-5)" fill-rule="evenodd"/>
        <path d="M96,96c17.5,0 32,14.5 32,32c0,17.5 -14.5,32 -32,32c-17.5,0 -32,-14.5 -32,-32c0,-17.5 14.5,-32 32,-32z" id="curve5" fill="url(#color-6)" fill-rule="evenodd"/>
        <path d="M400,128c17.5,0 32,14.5 32,32c0,17.5 -14.5,32 -32,32c-17.5,0 -32,-14.5 -32,-32c0,-17.5 14.5,-32 32,-32z" id="curve4" fill="url(#color-7)" fill-rule="evenodd"/>
        <path d="M224,160c17.5,0 32,14.5 32,32c0,17.5 -14.5,32 -32,32c-17.5,0 -32,-14.5 -32,-32c0,-17.5 14.5,-32 32,-32z" id="curve3" fill="url(#color-8)" fill-rule="nonzero"/>
        <path d="M368,288c17.5,0 32,14.5 32,32c0,17.5 -14.5,32 -32,32c-17.5,0 -32,-14.5 -32,-32c0,-17.5 14.5,-32 32,-32z" id="curve2" fill="url(#color-9)" fill-rule="nonzero"/>
        <path d="M416,384c17.5,0 32,14.5 32,32c0,17.5 -14.5,32 -32,32c-17.5,0 -32,-14.5 -32,-32c0,-17.5 14.5,-32 32,-32z" id="curve1" fill="url(#color-10)" fill-rule="nonzero"/>
        <path d="M128,304c17.5,0 32,14.5 32,32c0,17.5 -14.5,32 -32,32c-17.5,0 -32,-14.5 -32,-32c0,-17.5 14.5,-32 32,-32z" id="curve0" fill="url(#color-11)" fill-rule="nonzero"/>
    </g>
</svg>