<svg version="1.1"
    xmlns="http://www.w3.org/2000/svg"
    xmlns:xlink="http://www.w3.org/1999/xlink" width="512" height="512" viewBox="0 0 512 512">
    <title>help earth icon</title>
    <desc>help earth icon from the IconExperience.com G-Collection. Copyright by INCORS GmbH (www.incors.com).</desc>
    <defs>
        <radialGradient cx="233.25667" cy="166.54392" r="374.14497" fx="233.25667" fy="166.54392" gradientUnits="userSpaceOnUse" id="color-1">
            <stop offset="0" stop-color="#98e957"/>
            <stop offset="0.41177" stop-color="#77da26"/>
            <stop offset="1" stop-color="#3b6d13"/>
        </radialGradient>
        <linearGradient x1="96.5" y1="200" x2="250.5" y2="414.0015" gradientUnits="userSpaceOnUse" id="color-2">
            <stop offset="0" stop-color="#59a31d"/>
            <stop offset="1" stop-color="#3b6d13"/>
        </linearGradient>
        <radialGradient cx="227.12175" cy="161.95537" r="358.93492" fx="227.12175" fy="161.95537" gradientUnits="userSpaceOnUse" id="color-3">
            <stop offset="0" stop-color="#4eb6f2"/>
            <stop offset="0.2" stop-color="#43abe7"/>
            <stop offset="1" stop-color="#0e76b2"/>
        </radialGradient>
        <linearGradient x1="112" y1="200" x2="235.0945" y2="390.796" gradientUnits="userSpaceOnUse" id="color-4">
            <stop offset="0" stop-color="#4eb6f2"/>
            <stop offset="0.4" stop-color="#369eda"/>
            <stop offset="1" stop-color="#1d85c1"/>
        </linearGradient>
        <radialGradient cx="160.07161" cy="402.89627" r="252.16713" fx="160.07161" fy="402.89627" gradientUnits="userSpaceOnUse" id="color-5">
            <stop offset="0" stop-color="#ffffff"/>
            <stop offset="0.54902" stop-color="#ffffff"/>
            <stop offset="1" stop-color="#d8e0e8"/>
        </radialGradient>
    </defs>
    <g fill="none" fill-rule="evenodd" stroke="none" stroke-width="1" stroke-linecap="butt" stroke-linejoin="miter" stroke-miterlimit="10" stroke-dasharray="" stroke-dashoffset="0" font-family="none" font-weight="none" text-anchor="none" style="mix-blend-mode: normal">
        <path d="M304,0c115,0 208,93 208,208c0,115 -93,208 -208,208c-115,0 -208,-93 -208,-208c0,-115 93,-208 208,-208z" id="curve5" fill="url(#color-1)"/>
        <path d="M326.5,415c-7.5,0.5 -15,1 -22.5,1c-110.5,0 -201,-86 -207.5,-195c23.5,-13.5 50.5,-21 79.5,-21c88.5,0 160,71.5 160,160c0,19 -3.5,37.5 -9.5,55z" id="curve4" fill="url(#color-2)"/>
        <path d="M353,127c5.5,-2 13,-2 16,-1c14.5,5 14,19.5 28.5,22c2,0.5 9.5,-4.5 11.5,-4c9,1.5 17.5,10 25.5,6c4.5,-2 7,-11 3,-14.5c-4,-3 -10.5,-1 -15,-4c-6.5,-4.5 -12,2 -17.5,-4.5c-2.5,-2.5 -7,-11.5 -10,-16.5c-3.5,-5 -14,-3 -12.5,-0.5c5.5,7 13.5,8.5 14.5,12.5c1,4.5 -10.5,10 -7.5,2c2,-4 -6.5,-6.5 -15.5,-11.5c-5,-2.5 -10,-9.5 -17.5,-6c-3.5,2 -10.5,10.5 -13.5,15c-4.5,7 -15,5 -22.5,1.5c-7,-3.5 -7,-20.5 2,-28c9,-7.5 16,-3 25,-5.5c3.5,-1 5,-5 10.5,-8.5c6,-4 -4,-10.5 -0.5,-17.5c2.5,-5.5 12,-6.5 16.5,-9c4.5,-2 9.5,-6 14.5,-3c7,4 14.5,4.5 21,8.5c10,6 17,9.5 26.5,8.5c-31.5,-30.5 -74,-50 -120.5,-52.5c6.5,4.5 18,18 15,25c-3,7 -7.5,15.5 -21,20.5c-10,4 -23.5,4 -33.5,8.5c-10,4.5 -20.5,4 -26.5,5.5c-9.5,2 0.5,-31 -2,-34.5c-4,-5.5 -29,-1 -31.5,4.5c-5,13.5 7,24.5 6.5,27c-1,5 -1,25 -6,30c-7,8 -25.5,15 -28,15.5c-11.5,1.5 -14.5,13.5 -23.5,20.5c-3.5,3 -22.5,23 -25.5,29c-8,17 0,27.5 3.5,31c6.5,5.5 9,6.5 16.5,8.5c2.5,1 29.5,14.5 37,22.5c7.5,7.5 11,15.5 18.5,20c9,5.5 25.5,11.5 28,16c10,19 6.5,46 -22,65.5c-7.5,5 -22.5,13 -18.5,27c1.5,5.5 1,10 3,14.5c29,17 62.5,27 98.5,27c106,0 192,-86 192,-192c0,-9 -0.5,-18 -2,-27c-3,-4 -6,-7 -8,-6.5c-3.5,1 -3.5,11.5 -7,17c-3,5 -9.5,5.5 -10.5,7c-6.5,9.5 16.5,17 6.5,29.5c-4.5,6 -17.5,18.5 -21,34.5c-7.5,34.5 -2.5,13.5 -13.5,41.5c-1.5,4 -4.5,20 -7,23.5c-10.5,16 -40.5,34.5 -48,25c-4,-5.5 -6.5,-13.5 -8,-21c-1.5,-8 -9.5,-18 -8.5,-24c1,-9.5 2,-12.5 2,-23.5c0,-0.5 -6.5,-27 -7.5,-29.5c-5,-10 -13,-15 -24.5,-11c-8.5,3 -16,-1.5 -23,-4c-14,-6 -20.5,-24 -23.5,-39c0,0 2.5,-23.5 2.5,-24.5c0.5,-6.5 3,-12 6.5,-17c25,-35.5 19,-20.5 51.5,-32z M193.5,365c-11,-12.5 -22.5,-28 -26,-36.5c-4,-10 -5,-28 -10,-33.5c-10,-11 -19,-20.5 -20.5,-32c-2,-10.5 -8,-26 -9,-34c-1.5,-12 -7,-24.5 -15.5,-34c-0.5,4.5 -0.5,8.5 -0.5,13c0,65 32,122 81.5,157z" id="curve3" fill="url(#color-3)"/>
        <path d="M147.5,202.5c3.5,2.5 6.5,3.5 12,5c2.5,1 29.5,14.5 37,22.5c7.5,7.5 11,15.5 18.5,20c9,5.5 25.5,11.5 28,16c10,19 6.5,46 -22,65.5c-7.5,5 -22.5,13 -18.5,27c1.5,5.5 1,10 3,14.5c29,17 62.5,27 98.5,27c9.5,0 18.5,-0.5 27.5,-2c3,-12 4.5,-25 4.5,-38c0,-88.5 -71.5,-160 -160,-160c-9.5,0 -19,1 -28.5,2.5z M112,213.5c3.5,-1.5 6.5,-3 10,-4c3,6 5,13 6,19.5c1,8 7,23.5 9,34c1.5,11.5 10.5,21 20.5,32c5,5.5 6,23.5 10,33.5c3.5,8.5 15,24 26,36.5c-48,-34 -79.5,-89 -81.5,-151.5z" id="curve2" fill="url(#color-4)"/>
        <path d="M160,192c88.5,0 160,71.5 160,160c0,88.5 -71.5,160 -160,160c-88.5,0 -160,-71.5 -160,-160c0,-88.5 71.5,-160 160,-160z" id="curve1" fill="#91a0af"/>
        <path d="M140,386.5c0,-12.5 1.5,-22 4,-29.5c3,-7 7.5,-13 13.5,-18.5c6.5,-5.5 11.5,-10 14.5,-14.5c3.5,-4.5 5,-9 5,-14.5c0,-12.5 -5.5,-19 -16.5,-19c-5,0 -9.5,2 -12.5,5.5c-3,3.5 -5,9 -5,15l-43,0c0.5,-17 5.5,-30 16,-39.5c10.5,-9.5 25.5,-14 44.5,-14c19,0 33.5,4 44,13c10,8.5 15.5,21 15.5,37c0,7.5 -1.5,13.5 -4.5,19.5c-2.5,5.5 -7,11.5 -13.5,17.5l-14.5,13.5c-4,4 -7,8.5 -8.5,12.5c-1.5,4 -2.5,9.5 -2.5,16z M134.5,425c0,-6 2.5,-11 7,-15.5c4.5,-4 10,-6 17,-6c7,0 12.5,2 17,6c4.5,4.5 7,9.5 7,15.5c0,6.5 -2.5,11.5 -7,15.5c-4.5,4 -10,6 -17,6c-7,0 -12.5,-2 -17,-6c-4.5,-4 -7,-9 -7,-15.5z" id="curve0" fill="url(#color-5)"/>
    </g>
</svg>